<?xml version="1.0" encoding="UTF-8" standalone="no"?>
<!DOCTYPE svg PUBLIC "-//W3C//DTD SVG 1.1//EN" "http://www.w3.org/Graphics/SVG/1.1/DTD/svg11.dtd">
<svg width="100%" height="100%" viewBox="0 0 340 340" version="1.1" xmlns="http://www.w3.org/2000/svg" xmlns:xlink="http://www.w3.org/1999/xlink" xml:space="preserve" xmlns:serif="http://www.serif.com/" style="fill-rule:evenodd;clip-rule:evenodd;stroke-linejoin:round;stroke-miterlimit:2;">
    <g id="Artboard1" transform="matrix(0.62963,0,0,0.62963,0,0)">
        <rect x="0" y="0" width="540" height="540" style="fill:none;"/>
        <g transform="matrix(0.158824,0,0,-0.158824,-158.824,698.824)">
            <g transform="matrix(43.6825,0,0,-43.6825,-5111.73,3407.51)">
                <rect x="141.099" y="28.558" width="25.154" height="25.154" style="fill:rgb(128,237,153);"/>
            </g>
            <g transform="matrix(43.6825,0,0,-131.047,-2914.16,8100.09)">
                <rect x="141.099" y="28.558" width="25.154" height="25.154" style="fill:rgb(128,237,153);"/>
            </g>
            <g transform="matrix(43.6825,0,0,-87.365,-4012.94,5753.8)">
                <rect x="141.099" y="28.558" width="25.154" height="25.154" style="fill:rgb(128,237,153);"/>
            </g>
            <g transform="matrix(2.67478e-15,43.6825,43.6825,-2.67478e-15,2001.89,-4003.55)">
                <rect x="141.099" y="28.558" width="25.154" height="25.154" style="fill:rgb(94,232,125);"/>
            </g>
            <g transform="matrix(2.67478e-15,43.6825,43.6825,-2.67478e-15,903.101,-5102.33)">
                <rect x="141.099" y="28.558" width="25.154" height="25.154" style="fill:rgb(94,232,125);"/>
            </g>
            <g transform="matrix(43.6825,0,0,-43.6825,-2914.16,3407.51)">
                <rect x="141.099" y="28.558" width="25.154" height="25.154" style="fill:rgb(59,227,98);"/>
            </g>
        </g>
    </g>
</svg>
